<svg width="27" height="26" viewBox="0 0 27 26" fill="none" xmlns="http://www.w3.org/2000/svg">
<path d="M13.6837 10.957C14.6866 10.957 15.4666 10.1213 15.448 9.2113C15.4666 8.3013 14.7051 7.44702 13.7023 7.44702C12.7366 7.44702 11.938 8.22702 11.938 9.19273C11.938 10.1584 12.718 10.957 13.6837 10.957Z" fill="#CDCDCD"/>
<path d="M13.5354 0C6.36682 0 0.5354 5.8314 0.5354 12.9999C0.5354 20.187 6.36682 25.9999 13.5354 25.9999C20.7225 25.9999 26.5354 20.1685 26.5354 12.9999C26.5539 5.8314 20.7225 0 13.5354 0ZM13.7211 4.9214C16.0611 4.9214 17.9925 6.85282 17.9739 9.21138C17.9739 11.5885 16.0239 13.5014 13.6468 13.4642C11.3068 13.4271 9.4311 11.5142 9.4311 9.19281C9.4311 6.83425 11.344 4.9214 13.7211 4.9214ZM18.4939 14.9499C18.4939 14.9871 18.4754 15.0056 18.4754 15.0428C18.4197 15.4142 18.2339 15.7114 17.9182 15.9156C17.7139 16.0456 17.4911 16.1756 17.2682 16.2871C16.7111 16.5656 16.1168 16.7885 15.5039 16.9371C15.4297 16.9556 15.4297 16.9556 15.4854 17.0113C15.8197 17.3456 16.1725 17.6985 16.5068 18.0328C16.9339 18.4599 17.3797 18.9056 17.8068 19.3328C18.4197 19.9456 18.2525 20.967 17.4725 21.3385C17.3425 21.4128 17.1939 21.4313 17.0454 21.4685C16.9711 21.4685 16.8782 21.4685 16.8039 21.4685C16.7854 21.4685 16.7668 21.4685 16.7668 21.4499C16.4697 21.4128 16.2282 21.2642 16.0054 21.0599C15.2625 20.317 14.5011 19.5556 13.7582 18.8128C13.7025 18.7571 13.7025 18.7571 13.6468 18.8128C12.8854 19.5742 12.1425 20.317 11.3811 21.0785C11.2511 21.2085 11.1211 21.3013 10.954 21.3756C10.8425 21.4313 10.7125 21.4499 10.6011 21.4685C10.5268 21.4685 10.4525 21.4685 10.3597 21.4685C10.3225 21.4685 10.304 21.4499 10.2668 21.4499C9.76538 21.357 9.4311 21.0785 9.28253 20.5956C9.13396 20.1128 9.24539 19.6856 9.59824 19.3328C9.91396 19.017 10.2111 18.7199 10.5268 18.4042C10.9911 17.9399 11.4554 17.4756 11.9011 17.0299C11.9568 16.9742 11.9568 16.9742 11.8825 16.9556C11.864 16.9556 11.8268 16.9371 11.8082 16.9371C10.9725 16.7328 10.2111 16.3985 9.48681 15.9528C9.05967 15.6742 8.85539 15.2656 8.9111 14.7642C9.00396 13.8356 10.044 13.3342 10.824 13.8356C10.9725 13.9285 11.1025 14.0028 11.2697 14.0771C12.124 14.5042 13.034 14.6899 13.9811 14.6342C14.4454 14.6156 14.9097 14.5228 15.3739 14.3742C15.8197 14.2256 16.2097 14.0214 16.6182 13.7985C17.2868 13.4085 18.1597 13.7242 18.4197 14.4485C18.4568 14.5599 18.4754 14.6528 18.4939 14.7642C18.4939 14.8199 18.4939 14.8756 18.4939 14.9499Z" fill="#CDCDCD"/>
</svg>
