<svg width="26" height="26" viewBox="0 0 26 26" fill="none" xmlns="http://www.w3.org/2000/svg">
<path d="M18.7347 15.1271C17.6642 14.1029 17.5877 14.1029 18.5053 12.9211C19.6524 11.4243 21.1817 9.53349 19.8053 9.53349H17.2818C16.823 9.53349 16.7466 9.84862 16.5936 10.2425C15.9819 11.7394 14.7584 13.709 14.2996 13.3938C13.8408 13.0787 14.0702 11.897 14.0702 10.0062C14.1466 9.76984 14.0702 9.53349 13.9172 9.37592C13.7643 9.21836 13.5349 9.06079 13.3055 9.06079C12.9231 8.98201 12.5408 8.90323 12.1585 8.90323C10.7056 8.90323 9.71148 9.53349 10.2468 9.61227C11.2408 9.76984 11.1644 11.9758 10.935 12.9211C10.5526 14.5756 9.02326 11.6606 8.33505 10.1638C8.25858 9.76984 7.95271 9.53349 7.57036 9.53349H5.58219C5.27631 9.53349 5.04691 9.61227 5.04691 9.84862C5.04691 10.2425 6.95862 14.1029 8.71739 16.0725C10.4762 17.9632 12.2349 17.8057 13.4584 17.8057C13.6114 17.8057 13.7643 17.7269 13.8408 17.6481C13.9172 17.5693 13.9937 17.4118 13.9937 17.2542C13.9937 15.9937 14.4525 15.3634 15.2937 16.23C16.2113 17.1754 16.4407 17.8057 17.5877 17.8057H19.6524C20.1876 17.8057 20.3406 17.6481 20.3406 17.4118C20.417 16.8603 19.4994 15.8361 18.7347 15.1271ZM13.3055 0.000789162C20.417 0.158354 26.0757 6.06705 25.9992 13.2363C25.9228 20.4055 20.0347 26.0778 12.9231 25.9991C5.73512 25.9203 0 20.1691 0 12.9999C0.0764683 5.75192 6.041 -0.0779935 13.3055 0.000789162Z" fill="#CDCDCD"/>
</svg>
